HIERARCHY
ROOT Pelvis
{
	OFFSET 0.000000 0.000000 0.000000
	CHANNELS 6 Xposition Yposition Zposition Zrotation Yrotation Xrotation 
	JOINT Left_hip
	{
		OFFSET 0.070241 -0.085575 -0.010474
		CHANNELS 3 Zrotation Yrotation Xrotation
		JOINT Left_knee
		{
			OFFSET 0.032125 -0.356873 -0.000555
			CHANNELS 3 Zrotation Yrotation Xrotation
			JOINT Left_ankle
			{
				OFFSET -0.010961 -0.370212 -0.042278
				CHANNELS 3 Zrotation Yrotation Xrotation
				JOINT Left_foot
				{
					OFFSET 0.023322 -0.052281 0.110104
					CHANNELS 3 Zrotation Yrotation Xrotation
					End Site
					{
						OFFSET 0.000000 0.000000 0.000000
					}
				}
			}
		}
	}
	JOINT Right_hip
	{
		OFFSET -0.068518 -0.084320 -0.007402
		CHANNELS 3 Zrotation Yrotation Xrotation
		JOINT Right_knee
		{
			OFFSET -0.037345 -0.364815 -0.003619
			CHANNELS 3 Zrotation Yrotation Xrotation
			JOINT Right_ankle
			{
				OFFSET 0.013394 -0.370006 -0.039954
				CHANNELS 3 Zrotation Yrotation Xrotation
				JOINT Right_foot
				{
					OFFSET -0.019600 -0.045455 0.113223
					CHANNELS 3 Zrotation Yrotation Xrotation
					End Site
					{
						OFFSET 0.000000 0.000000 0.000000
					}
				}
			}
		}
	}
	JOINT Spine1
	{
		OFFSET -0.002404 0.098129 -0.018169
		CHANNELS 3 Zrotation Yrotation Xrotation
		JOINT Spine2
		{
			OFFSET 0.003989 0.127209 -0.001742
			CHANNELS 3 Zrotation Yrotation Xrotation
			JOINT Spine3
			{
				OFFSET 0.001758 0.046641 0.023475
				CHANNELS 3 Zrotation Yrotation Xrotation
				JOINT Neck
				{
					OFFSET -0.003759 0.194901 -0.039982
					CHANNELS 3 Zrotation Yrotation Xrotation
					JOINT Head
					{
						OFFSET 0.003999 0.063756 0.047665
						CHANNELS 3 Zrotation Yrotation Xrotation
						End Site
						{
							OFFSET 0.000000 0.000000 0.000000
						}
					}
				}
				JOINT Left_collar
				{
					OFFSET 0.071816 0.109048 -0.028973
					CHANNELS 3 Zrotation Yrotation Xrotation
					JOINT Left_shoulder
					{
						OFFSET 0.084027 0.032269 -0.006525
						CHANNELS 3 Zrotation Yrotation Xrotation
						JOINT Left_elbow
						{
							OFFSET 0.243854 -0.013992 -0.025905
							CHANNELS 3 Zrotation Yrotation Xrotation
							JOINT Left_wrist
							{
								OFFSET 0.232156 0.008196 -0.000339
								CHANNELS 3 Zrotation Yrotation Xrotation
								JOINT Left_palm
								{
									OFFSET 0.075377 -0.009461 -0.012494
									CHANNELS 3 Zrotation Yrotation Xrotation
									End Site
									{
										OFFSET 0.000000 0.000000 0.000000
									}
								}
							}
						}
					}
				}
				JOINT Right_collar
				{
					OFFSET -0.073768 0.107001 -0.033755
					CHANNELS 3 Zrotation Yrotation Xrotation
					JOINT Right_shoulder
					{
						OFFSET -0.086837 0.032868 -0.009431
						CHANNELS 3 Zrotation Yrotation Xrotation
						JOINT Right_elbow
						{
							OFFSET -0.236446 -0.012544 -0.018747
							CHANNELS 3 Zrotation Yrotation Xrotation
							JOINT Right_wrist
							{
								OFFSET -0.236110 0.006124 -0.004327
								CHANNELS 3 Zrotation Yrotation Xrotation
								JOINT Right_palm
								{
									OFFSET -0.074800 -0.006875 -0.009610
									CHANNELS 3 Zrotation Yrotation Xrotation
									End Site
									{
										OFFSET 0.000000 0.000000 0.000000
									}
								}
							}
						}
					}
				}
			}
		}
	}
}
MOTION
Frames: 5
Frame Time: 0.100000
-0.085740 -0.008594 0.070466 178.394888 11.129735 -11.786675 9.123411 7.924821 -8.929099 -0.301545 -3.893206 17.878079 -5.426590 15.278366 1.748760 6.940875 3.676628 -15.612963 4.488453 -7.777628 -3.007519 2.239318 4.729739 4.919369 6.750904 -14.936620 -6.658018 -9.866233 4.552847 -1.205425 0.419706 5.337852 5.720002 -0.532252 -2.573361 4.263545 0.286587 5.325538 -5.718763 -5.023644 -0.918293 0.216541 4.469519 -3.938516 7.651736 1.608239 -25.531932 -8.374735 -18.501881 -33.109225 1.809043 -5.877892 -29.937351 42.607565 5.569748 -4.060406 41.360245 -9.848962 -13.151889 -14.605420 4.910456 33.178511 1.576266 19.873345 38.502549 -3.378731 5.768341 31.505020 38.046682 -8.079915 6.348156 38.634404 12.476633 12.984275 -9.753711 
-0.074144 -0.006459 0.081680 178.026495 10.360228 -11.693745 10.351192 11.179672 -12.939400 -1.180335 -0.079924 23.198086 -5.984387 18.899736 2.150732 6.272358 1.101797 -15.393534 5.384490 -8.489986 -1.616191 3.019987 6.969685 3.452165 6.277942 -16.023090 -7.287486 -7.991801 6.105219 0.424421 0.947923 5.556338 4.868342 -0.313312 -2.594702 3.716987 0.372757 5.224417 -5.939125 -4.695460 -0.872528 0.594900 4.802155 -3.946198 7.359564 0.840254 -20.241243 -7.336015 -8.398311 -24.870884 -5.842224 -3.911336 -17.695067 36.791417 7.774724 -5.404678 45.276739 -7.453513 -13.086947 -15.221089 4.846397 27.387339 2.638556 7.832892 30.466931 -14.557949 2.408443 20.252182 32.300677 -9.935671 8.191802 45.319994 11.655642 12.692778 -10.607098 
-0.071662 -0.008629 0.099019 176.556763 9.268216 -12.357901 13.153145 15.413725 -14.587011 -0.213732 9.556997 24.779015 -7.933628 23.875014 1.579116 13.905226 -1.843696 -10.513024 8.040273 -6.537988 2.491390 2.254481 4.919744 -1.297575 -3.054526 -18.498686 -7.094358 5.225922 4.616828 7.387636 2.491095 5.380242 5.005078 0.783086 -1.400045 -1.172958 0.512856 4.125432 -1.998508 -0.020790 1.520403 3.638524 -1.679975 -6.641813 4.300511 -3.244306 -9.587252 -7.366318 0.330528 -20.699647 -6.686393 -1.858598 -7.967848 26.764035 -0.929272 -2.736273 47.389681 -2.818372 -9.689438 -7.707172 8.963299 19.864194 -0.804602 -3.954390 22.177020 -12.624393 1.165365 12.843960 27.896901 -3.900560 4.588963 46.165561 8.271094 8.641757 -6.541853 
-0.072869 -0.011648 0.113000 176.983878 8.511751 -12.437664 12.423817 16.250233 -14.305299 0.861685 11.857587 24.084464 -7.623546 27.602363 1.007277 14.615410 -4.036407 -8.616765 7.932252 -6.617125 3.548458 2.049619 5.840251 -1.097427 -3.690622 -19.699727 -7.417020 7.346845 5.258624 8.364163 2.750126 5.343300 4.409519 0.601633 -1.087912 -3.138454 0.239299 3.820337 -0.428789 0.205608 1.009314 5.520641 -2.183385 -6.011127 4.123050 -3.758183 -3.260769 -8.128222 4.678606 -15.588168 -10.568567 -0.413887 0.796154 16.190252 0.370411 -3.170899 43.534817 -1.771728 -8.951290 -5.346230 8.462071 13.515609 -2.662964 -8.653587 16.918068 -15.169671 0.297786 7.897663 21.617681 -5.251992 5.040752 44.351448 7.665049 7.724643 -5.578274 
-0.074523 -0.014381 0.122229 177.212625 8.043692 -12.130737 12.342127 16.270918 -13.658104 1.005603 11.355029 23.820914 -7.896377 28.405322 0.575745 14.669632 -5.083534 -8.378937 7.835703 -6.681498 4.136313 1.914397 6.467399 -1.550885 -3.413851 -20.298409 -7.578901 7.022800 5.871991 8.435958 2.770211 5.204316 4.006670 0.464866 -0.805224 -4.601476 0.105018 3.674348 0.575713 0.084457 0.732467 6.073127 -2.323823 -6.316846 3.447205 -2.346413 1.526127 -8.773077 5.855981 -13.589951 -13.220951 0.675579 4.996015 9.063674 0.699370 -3.576281 39.382887 -1.107293 -8.094650 -4.135595 6.770004 9.219153 -3.945587 -9.800581 14.900430 -17.864088 -2.241490 3.694375 13.653865 -6.231944 5.206314 39.238740 7.062112 6.872345 -4.332155 
